{"title":"Tidal.Wave.2009.DVDRip.XviD.BeStDivX.NORAR.avi","uid":5218391,"size":738791886,"categoryP":"video","categoryS":"movies","magnet":"?xt=urn:btih:e03faa98a9cdafc29e9109367961452ed7ad87da&amp;dn=Tidal.Wave.2009.DVDRip.XviD.BeStDivX.NORAR.avi&amp;tr=udp%3A%2F%2Ftracker.openbittorrent.com%3A80&amp;tr=udp%3A%2F%2Fopen.demonii.com%3A1337&amp;tr=udp%3A%2F%2Ftracker.coppersurfer.tk%3A6969&amp;tr=udp%3A%2F%2Fexodus.desync.com%3A6969","seeders":0,"leechers":1,"uploader":"IwannaFan2","files":1,"time":1260830832,"description":"Haeundae (2009)\naka Tidal Wave &lt;a href=&quot;\nhttp://www.imdb.com/title/tt1153040/&quot; rel=&quot;nofollow&quot; target=&quot;_NEW&quot;&gt;\nhttp://www.imdb.com/title/tt1153040/&lt;/a&gt;\nRating: 6.2/10 (334 votes)\n120m19s\n640x272\n1169 kbps\n\nVideo\nID                               : 0\nFormat                           : MPEG-4 Visual\nFormat settings, BVOP            : Yes\nFormat settings, QPel            : No\nFormat settings, GMC             : No warppoints\nFormat settings, Matrix          : Default (H.263)\nCodec ID                         : DX50\nCodec ID/Hint                    : DivX 5\nDuration                         : 1h 42mn\nBit rate                         : 821 Kbps\nWidth                            : 640 pixels\nHeight                           : 480 pixels\nDisplay aspect ratio             : 4:3\nFrame rate                       : 30.000 fps\nResolution                       : 24 bits\nColorimetry                      : 4:2:0\nScan type                        : Progressive\nBits/(Pixel*Frame)               : 0.089\nStream size                      : 602 MiB (85%)\nWriting library                  : DivX 2151n\n\nAudio\nID                               : 1\nFormat                           : MPEG Audio\nFormat version                   : Version 1\nFormat profile                   : Layer 3\nCodec ID                         : 55\nCodec ID/Hint                    : MP3\nDuration                         : 1h 42mn\nBit rate mode                    : Constant\nBit rate                         : 128 Kbps\nChannel(s)                       : 2 channels\nSampling rate                    : 48.0 KHz\nResolution                       : 16 bits\nStream size                      : 93.9 MiB (13%)\nAlignment                        : Aligned on interleaves\nInterleave, duration             : 33 ms (1.00 video frame)","torrent":{"xt":"urn:btih:e03faa98a9cdafc29e9109367961452ed7ad87da","amp;dn":"Tidal.Wave.2009.DVDRip.XviD.BeStDivX.NORAR.avi","amp;tr":["udp%3A%2F%2Ftracker.openbittorrent.com%3A80","udp%3A%2F%2Fopen.demonii.com%3A1337","udp%3A%2F%2Ftracker.coppersurfer.tk%3A6969","udp%3A%2F%2Fexodus.desync.com%3A6969"],"infoHash":"e03faa98a9cdafc29e9109367961452ed7ad87da","infoHashBuffer":{"type":"Buffer","data":[224,63,170,152,169,205,175,194,158,145,9,54,121,97,69,46,215,173,135,218]},"announce":[],"urlList":[]}}